<svg width="24" height="25" viewBox="0 0 24 25" fill="none" xmlns="http://www.w3.org/2000/svg">
<rect y="0.5" width="24" height="24" rx="5" fill="#7FBA31"/>
<path d="M21 8.81092H19.4435V5.05674H15.8458V3.5H21V8.81092Z" fill="#C2D332"/>
<path d="M2.99988 8.81092H4.55662V5.05674H8.15432V3.5H2.99988V8.81092Z" fill="#C2D332"/>
<path d="M3 16.189H4.55675V19.9433H8.15444V21.5001H3V16.189Z" fill="#C2D332"/>
<path d="M21 21.4999H15.8458V19.9432H19.4435V16.1104H21V21.4999Z" fill="#C2D332"/>
<path d="M11.0395 11.6523H5.70068V6.31348H11.0395V11.6523ZM6.50675 10.8462H10.2332V7.11955H6.50675V10.8462Z" fill="white"/>
<path d="M18.2996 11.6523H12.9608V6.31348H18.2996V11.6523ZM13.7668 10.8462H17.4927V7.11955H13.7668V10.8462Z" fill="white"/>
<path d="M17.3971 17.784H13.8633V14.251H17.3971V17.784ZM14.6694 16.9779H16.59V15.0572H14.6694V16.9779Z" fill="#C2D332"/>
<path d="M11.0395 18.6867H5.70068V13.3477H11.0395V18.6867ZM6.50675 17.8804H10.2332V14.1539H6.50675V17.8804Z" fill="white"/>
</svg>
