<svg width="24" height="25" viewBox="0 0 24 25" fill="none" xmlns="http://www.w3.org/2000/svg">
<path d="M-0.000488281 5.94434C-0.000488281 3.18291 2.23809 0.944336 4.99951 0.944336H19C21.7614 0.944336 24 3.18291 24 5.94434V20C24 22.7614 21.7614 25 19 25H4.99951C2.23809 25 -0.000488281 22.7614 -0.000488281 20V5.94434Z" fill="#3F2A56"/>
<path fill-rule="evenodd" clip-rule="evenodd" d="M12.7534 15.6374L14.6753 6.53532H11.7766L11.0864 10.0051C9.8089 6.81902 5.0009 10.0051 4.82424 15.4407C4.59227 19.1591 8.00289 20.9843 9.94914 17.9038C10.8849 19.5541 12.6597 19.4108 12.6597 19.4108L13.2964 16.403C12.9049 16.3379 12.6558 16.1569 12.7534 15.6374ZM8.00274 13.6354C7.2499 16.6802 7.95603 17.9038 9.27767 16.8709C9.63286 16.5666 9.95275 15.4234 10.064 14.7964C10.125 14.452 10.1751 14.209 10.2769 13.8744C11.3191 10.45 9.1177 9.7596 8.00274 13.6354ZM19.187 6.53532H16.709C16.4527 7.23114 15.5374 7.45081 15.2262 7.45081L14.9517 9.08003H15.7026L14.1279 16.4524H17.105L19.187 6.53532ZM15.5693 19.4646C16.2903 19.4646 16.8748 18.8801 16.8748 18.1591C16.8748 17.4382 16.2903 16.8537 15.5693 16.8537C14.8483 16.8537 14.2639 17.4382 14.2639 18.1591C14.2639 18.8801 14.8483 19.4646 15.5693 19.4646Z" fill="#2FD9A9"/>
</svg>
